<svg width="496" height="128" viewBox="0 0 496 128" fill="none" xmlns="http://www.w3.org/2000/svg">
<g clip-path="url(#clip0)">
<path fill-rule="evenodd" clip-rule="evenodd" d="M269.995 11.0632V60.5842H327.155V64.7987C327.155 67.1694 325.311 69.0133 322.94 69.0133H269.995V121.168C269.995 124.066 267.624 126.437 264.727 126.437H260.249V2.63409C260.249 1.31705 261.302 0 262.883 0H337.164V5.79501C337.164 7.11206 336.11 8.4291 334.53 8.4291H272.629C271.048 8.4291 269.995 9.74615 269.995 11.0632ZM113.529 56.3697C104.837 56.3697 97.198 55.316 90.3494 48.4674L94.5639 44.2528C96.9346 41.8821 100.622 41.3553 103.52 42.6724C106.944 44.2528 110.632 44.5162 113.529 44.5162C118.271 44.5162 123.012 42.9358 123.012 38.9846C123.012 36.3505 121.432 34.5067 117.217 33.9799L108.525 33.1896C98.7785 32.136 92.7201 27.9214 92.7201 17.9119C92.7201 6.58527 102.73 0.526855 113.793 0.526855C122.222 0.526855 129.334 2.10731 134.602 6.84868L129.071 12.3803C127.49 13.9607 125.119 14.4876 123.276 13.4339C120.378 12.1169 116.954 11.5901 113.529 11.5901C107.998 11.5901 105.891 14.2241 105.891 16.8582C105.891 18.9655 106.681 21.0728 111.422 21.5996L120.115 22.3898C130.914 23.4435 136.183 29.2385 136.183 38.4578C136.446 50.8381 126.173 56.3697 113.529 56.3697ZM42.6723 35.0335C42.6723 33.4531 43.726 32.136 45.3064 32.136L77.179 31.8726V28.4483C77.179 13.1705 69.2767 3.68781 56.1062 3.68781C43.1991 3.68781 35.0334 13.434 35.0334 30.0287C35.0334 48.204 43.726 56.3697 57.4232 56.3697C66.1158 56.3697 70.8571 53.7356 76.1253 48.4674L74.5449 46.887C72.701 45.3065 70.0669 45.0431 67.9596 46.6235C65.0621 48.7308 62.1646 49.7845 57.6867 49.7845C48.7307 49.7845 43.4626 44.5163 42.6723 35.0335ZM55.8428 10.273C61.3744 10.273 65.8523 13.1705 67.9596 17.9119C69.0133 20.0192 69.2767 21.3362 69.2767 23.7069C69.2767 25.2874 68.223 26.6044 66.6426 26.6044H45.043C43.4626 26.6044 42.1455 25.2874 42.4089 23.7069C42.6723 21.3362 42.9357 20.0192 43.726 17.9119C45.8332 13.1705 50.3112 10.273 55.8428 10.273ZM25.5507 11.8534C27.658 13.1705 30.2921 12.6437 31.8725 11.0632L34.5066 8.69251C30.8189 5.00478 27.1312 3.95114 22.1264 3.95114C16.068 3.95114 10.5364 6.58524 7.63887 10.7998V7.11205C7.63887 5.5316 6.32183 4.47796 5.00478 4.47796H0V55.8428H2.37068C5.26819 55.8428 7.63887 53.4721 7.63887 50.5746V24.2337C7.63887 16.3314 12.3802 10.5364 19.7557 10.5364C22.3898 10.5364 23.9703 10.7998 25.5507 11.8534ZM163.841 56.3697C171.743 56.3697 177.275 53.2088 180.699 49.7844C185.44 44.7796 186.757 38.4578 186.757 28.7117C186.757 18.9655 185.704 12.6437 180.699 7.63892C177.538 4.21459 172.006 1.05368 163.841 1.05368C155.675 1.05368 150.407 4.21459 146.982 7.63892C142.241 12.6437 140.924 18.9655 140.924 28.7117C140.924 38.4578 141.978 44.7796 146.982 49.7844C150.407 53.2088 155.675 56.3697 163.841 56.3697ZM233.644 55.8428C230.747 55.8428 228.639 53.4721 228.639 50.838C225.215 54.5258 219.947 56.3696 214.942 56.3696C209.41 56.3696 205.196 54.5258 202.035 51.6283C197.557 47.1503 196.503 42.1455 196.503 36.0871V1.31705H202.298C206.513 1.31705 210.201 4.74137 210.201 9.21933V34.2432C210.201 41.6187 214.942 44.2528 219.157 44.2528C223.371 44.2528 228.112 41.6187 228.112 34.2432V9.21933C228.112 5.00478 231.537 1.31705 236.015 1.31705H241.81V55.8428H233.644ZM122.222 81.1301C125.119 82.1837 128.544 81.6569 130.651 79.5496L134.602 75.8619C135.656 74.8082 135.656 72.9644 134.339 71.9107C131.178 69.54 127.754 68.7498 123.539 68.7498C117.744 68.7498 112.476 71.3839 109.842 74.5448V71.9107C109.842 70.3303 108.525 69.2766 107.208 69.2766H96.6713V123.802H105.1C107.998 123.802 110.369 121.432 110.369 118.534V90.6128C110.369 83.7642 114.847 80.6032 119.061 80.6032C120.378 80.6032 121.432 80.8666 122.222 81.1301ZM167.002 124.329C156.202 124.329 142.768 118.534 142.768 96.4078C142.768 74.2814 156.202 68.7498 167.002 68.7498C174.64 68.7498 180.172 71.1205 184.913 76.1253L181.753 79.2862C178.855 82.1837 174.641 82.7105 170.689 81.3935C169.636 81.1301 168.319 80.8667 167.002 80.8667C163.841 80.8667 161.207 81.9203 159.363 84.291C157.255 86.9251 156.465 90.6128 156.465 96.4078C156.465 102.203 157.519 105.891 159.363 108.525C161.47 110.895 163.841 111.949 167.002 111.949C169.109 111.949 170.953 111.422 172.797 110.369C174.904 109.051 177.801 109.578 179.382 111.159L184.913 116.69C180.172 121.959 174.377 124.329 167.002 124.329ZM208.886 100.886C208.989 107.858 213.193 112.739 220.737 112.739C224.161 112.739 226.796 112.212 228.903 110.895C231.8 109.315 235.488 109.842 237.859 112.212L241.283 115.637C235.751 121.168 230.483 124.329 220.737 124.329C207.83 124.329 195.45 118.534 195.45 96.4078C195.45 78.7594 204.933 68.7498 219.157 68.7498C234.171 68.7498 242.864 79.813 242.864 94.8273V98.2517C242.864 99.5687 241.81 100.886 240.229 100.886H208.886ZM395.904 120.378C397.485 119.061 400.119 120.378 400.119 122.485C400.119 124.593 401.963 126.437 404.333 126.437H409.602V40.8285H405.65C402.753 40.8285 400.382 43.1992 400.382 46.0967V94.0372C400.382 110.105 391.426 119.588 376.149 119.588C360.871 119.588 352.442 110.632 352.442 94.0372V46.0967C352.442 43.1992 350.071 40.8285 347.174 40.8285H343.222V95.6177C343.222 105.627 346.383 113.793 352.178 119.325C357.71 124.593 365.349 127.49 374.832 127.49C382.997 127.49 390.109 125.12 395.904 120.378ZM448.06 126.437C434.099 126.437 427.514 117.481 427.514 104.31V0H431.465C434.362 0 436.733 2.37068 436.733 5.26819V104.047C436.733 113.529 439.63 118.534 449.903 118.534H450.957C453.855 118.534 456.225 120.905 456.225 123.802V126.437H448.06ZM467.815 104.31C467.815 117.481 474.4 126.437 488.361 126.437H496.527V123.802C496.527 120.905 494.156 118.534 491.258 118.534H490.205C479.932 118.534 477.034 113.529 477.034 104.047V5.26819C477.034 2.37068 474.664 0 471.766 0H467.815V104.31Z" fill="#5ECC14"/>
</g>
<defs>
<clipPath id="clip0">
<rect width="496" height="127.49" fill="white"/>
</clipPath>
</defs>
</svg>
